# xmcd
#
# Track frame offsets:
#	150
#	25723
#	46939
#	62913
#	87668
#	105774
#
# Disc length: 1633 seconds
#
# Revision: 0
# Processed by: cddbd v1.5PL3 Copyright (c) Steve Scherf et al.
# Submitted via: dBpowerAMP V4.0
#
DISCID=41065f06
DTITLE=JRStarz - Love is...
DYEAR=2004
DGENRE=Pop
TTITLE0=Creation Song
TTITLE1=My Heart
TTITLE2=You
TTITLE3=Love is
TTITLE4=Together
TTITLE5=Chocolate and Ice Cream and You
EXTD=
EXTT0=
EXTT1=
EXTT2=
EXTT3=
EXTT4=
EXTT5=
PLAYORDER=
